<svg xmlns="http://www.w3.org/2000/svg" xmlns:xlink="http://www.w3.org/1999/xlink" version="1.1" x="0px" y="0px" viewBox="0 0 100 125" style="enable-background:new 0 0 100 100;" xml:space="preserve"><path d="M31.6,54.9L31.6,54.9v19.6h-6.5V81H12v-6.5H5.5v19.6h13.1v-6.5h13.1V81h19.6v-6.5h19.6V68H57.8v-6.5h6.5V55h-13v13h-6.5  V54.9h6.5v-6.5h6.5h6.5v6.5h6.5V68h19.6v-6.5H97V48.3h-6.5v-6.5H84v-6.5h-6.5v-6.5H71v-6.5h-6.5v-6.5H58V9.1H44.7V2.6h-6.5v6.5h-6.5  v13.1h-6.5v19.6h-6.5v13.1H31.6 M31.6,48.3v-13h6.5v6.5h6.5v6.5H31.6 M77.4,61.4V48.3h-6.5v-6.5h-6.5v-6.5h-6.5h-6.5v-6.5h-6.5h-6.5  v-6.5v-6.5h6.5v6.5h6.5h6.5v6.5h6.5v6.5h6.5v6.5h6.5v6.5H84v13.1H77.4z"/><polygon points="25.1,74.5 25.1,61.4 18.6,61.4 18.6,54.9 12,54.9 12,74.5 "/><text x="0" y="115" fill="#000000" font-size="5px" font-weight="bold" font-family="'Helvetica Neue', Helvetica, Arial-Unicode, Arial, Sans-serif">Created by Damien Gallay</text><text x="0" y="120" fill="#000000" font-size="5px" font-weight="bold" font-family="'Helvetica Neue', Helvetica, Arial-Unicode, Arial, Sans-serif">from the Noun Project</text></svg>